<?xml version="1.0" encoding="utf-8"?>
<!-- Generator: Adobe Illustrator 17.1.0, SVG Export Plug-In . SVG Version: 6.00 Build 0)  -->
<!DOCTYPE svg PUBLIC "-//W3C//DTD SVG 1.1//EN" "http://www.w3.org/Graphics/SVG/1.1/DTD/svg11.dtd">
<svg version="1.1" id="Слой_1" xmlns="http://www.w3.org/2000/svg" xmlns:xlink="http://www.w3.org/1999/xlink" x="0px"
     y="0px"
     viewBox="0 0 45 45" enable-background="new 0 0 45 45" xml:space="preserve">
<path fill="#DBDBDB" d="M44.6,17.1c-0.1-0.3-0.3-0.5-0.7-0.5l-14.4-2.1L23.1,1.4C23,1.2,22.7,1,22.4,1c0,0,0,0,0,0v35.5l12.7,6.8
	c0.1,0.1,0.2,0.1,0.4,0.1s0.3-0.1,0.5-0.2c0.2-0.2,0.4-0.5,0.3-0.8L33.8,28l10.4-10.2C44.6,17.7,44.7,17.4,44.6,17.1z"/>
    <path fill="#FFC617" d="M21.7,1.4l-6.4,13L0.9,16.6c-0.3,0-0.6,0.3-0.7,0.5c-0.1,0.3,0,0.6,0.2,0.8L10.8,28L8.4,42.3
	c-0.1,0.3,0.1,0.6,0.3,0.8s0.6,0.2,0.8,0.1l12.8-6.8l0.1,0.1V1C22.1,1,21.8,1.2,21.7,1.4z"/>
</svg>
