<?xml version="1.0"?>
<svg xmlns="http://www.w3.org/2000/svg" id="Layer_1" enable-background="new 0 0 512 512" height="512px"
     viewBox="0 0 512 512" width="512px" class="hovered-paths">
    <g>
        <g>
            <path
                d="m437.02 74.98c-48.353-48.351-112.64-74.98-181.02-74.98s-132.667 26.629-181.02 74.98c-48.351 48.353-74.98 112.64-74.98 181.02s26.629 132.667 74.98 181.02c48.353 48.351 112.64 74.98 181.02 74.98s132.667-26.629 181.02-74.98c48.351-48.353 74.98-112.64 74.98-181.02s-26.629-132.667-74.98-181.02zm-21.214 340.826c-42.686 42.686-99.439 66.194-159.806 66.194s-117.12-23.508-159.806-66.194-66.194-99.439-66.194-159.806 23.508-117.12 66.194-159.806 99.439-66.194 159.806-66.194 117.12 23.508 159.806 66.194 66.194 99.439 66.194 159.806-23.508 117.12-66.194 159.806z"
                data-original="#000000" class="hovered-path active-path" data-old_color="#000000" fill="#657480"/>
            <path
                d="m256 58.578c-108.859 0-197.422 88.563-197.422 197.422s88.563 197.422 197.422 197.422 197.422-88.563 197.422-197.422-88.563-197.422-197.422-197.422zm0 30c63.149 0 118.245 35.144 146.756 86.9-46.581-18.234-95.787-27.454-146.756-27.454-50.97 0-100.175 9.219-146.756 27.453 28.511-51.756 83.607-86.899 146.756-86.899zm-152.728 235.995c7.556-2.953 15.641-4.486 23.874-4.486 36.137 0 65.537 29.4 65.537 65.537 0 8.097-1.484 16.058-4.345 23.511-37.704-16.724-68.124-46.977-85.066-84.562zm113.491 94.206c3.899-10.547 5.919-21.761 5.919-33.154 0-52.679-42.857-95.537-95.537-95.537-11.592 0-22.988 2.087-33.689 6.117-3.188-12.884-4.88-26.35-4.88-40.205 0-14.14 1.763-27.877 5.079-41.002 50.787-24.538 105.369-36.974 162.345-36.974s111.557 12.436 162.344 36.974c3.316 13.125 5.079 26.861 5.079 41.001 0 13.854-1.692 27.321-4.88 40.204-10.7-4.03-22.097-6.117-33.688-6.117-52.679 0-95.537 42.858-95.537 95.537 0 11.394 2.02 22.607 5.92 33.154-12.59 3.035-25.729 4.644-39.237 4.644-13.509.001-26.648-1.607-39.238-4.642zm106.899-9.644c-2.861-7.453-4.345-15.413-4.345-23.511 0-36.137 29.4-65.537 65.537-65.537 8.233 0 16.318 1.532 23.874 4.486-16.942 37.585-47.362 67.838-85.066 84.562z"
                data-original="#000000" class="hovered-path active-path" data-old_color="#000000" fill="#657480"/>
            <path
                d="m304.05 256c0-26.495-21.555-48.05-48.05-48.05s-48.05 21.555-48.05 48.05 21.555 48.05 48.05 48.05 48.05-21.555 48.05-48.05zm-48.05 18.05c-9.953 0-18.05-8.097-18.05-18.05s8.097-18.05 18.05-18.05 18.05 8.097 18.05 18.05-8.097 18.05-18.05 18.05z"
                data-original="#000000" class="hovered-path active-path" data-old_color="#000000" fill="#657480"/>
        </g>
    </g>
</svg>
